<?xml version="1.0" standalone="no"?>
<!DOCTYPE svg PUBLIC "-//W3C//DTD SVG 20010904//EN"
 "http://www.w3.org/TR/2001/REC-SVG-20010904/DTD/svg10.dtd">
<svg version="1.0" xmlns="http://www.w3.org/2000/svg"
 width="700.000000pt" height="700.000000pt" viewBox="0 0 700.000000 700.000000"
 preserveAspectRatio="xMidYMid meet">
<metadata>
Created by potrace 1.14, written by Peter Selinger 2001-2017
</metadata>
<g transform="translate(0.000000,700.000000) scale(0.100000,-0.100000)"
fill="#000000" stroke="none">
<path d="M2707 6293 c-4 -3 -7 -86 -7 -184 0 -148 -3 -180 -16 -193 -13 -14
-63 -16 -387 -16 -217 0 -378 -4 -387 -10 -13 -8 -14 -39 -12 -200 l4 -190
-201 0 -201 0 -1 -87 c-2 -171 -13 -283 -29 -293 -8 -5 -95 -10 -192 -10
l-178 0 0 -589 0 -590 -22 -15 c-18 -13 -54 -16 -188 -16 -116 0 -170 -4 -178
-12 -9 -9 -12 -372 -12 -1574 0 -1522 0 -1562 19 -1585 19 -23 25 -24 186 -27
118 -2 170 0 181 9 11 9 14 47 14 190 0 166 1 179 19 189 11 5 85 10 168 10
212 0 197 -15 204 205 4 99 7 183 8 188 0 4 88 7 195 7 l193 0 5 -175 c6 -234
-10 -219 228 -223 l180 -4 0 -193 c0 -167 2 -194 16 -199 9 -3 182 -6 384 -6
l369 0 15 22 c14 19 16 71 16 364 l0 341 26 27 27 26 353 0 c307 0 355 -2 368
-16 14 -13 16 -61 16 -369 0 -308 2 -356 16 -369 13 -14 63 -16 388 -16 276 0
375 3 384 12 8 8 12 58 12 160 0 156 8 195 44 203 12 3 92 6 178 7 112 2 161
7 170 16 9 9 14 64 16 203 l4 189 196 -2 197 -3 5 -166 c4 -146 7 -170 24
-188 31 -34 89 -44 236 -40 l135 4 5 -190 5 -190 185 -3 c165 -2 186 -1 197
15 10 13 13 346 13 1595 l0 1578 -200 0 -200 0 0 165 0 165 -402 -2 -403 -3 0
-405 0 -405 198 -3 197 -2 0 -150 c0 -137 -2 -150 -19 -160 -13 -6 -150 -10
-378 -10 -308 0 -362 2 -381 16 -21 15 -22 20 -22 200 l0 184 -195 0 -195 0 0
605 0 605 195 0 195 0 0 200 0 200 399 0 398 0 5 173 c3 94 1 182 -3 195 -8
22 -10 22 -204 22 l-195 0 -2 198 -3 197 -387 5 c-212 3 -390 9 -395 13 -4 5
-10 93 -13 195 l-5 187 -786 3 c-432 1 -789 -1 -792 -5z m313 -1468 l0 -195
200 0 200 0 0 -195 0 -195 -400 0 -400 0 0 -405 0 -405 403 -2 c221 -2 311 -4
200 -5 l-203 -3 0 -181 c0 -105 -4 -188 -10 -200 -10 -18 -25 -19 -388 -19
-221 0 -383 4 -392 10 -12 8 -15 41 -15 197 l0 188 -197 3 -198 2 0 606 0 606
186 -4 c231 -4 218 -14 208 158 -4 66 -4 146 0 177 l7 57 400 0 399 0 0 -195z"/>
</g>
</svg>
